<?xml version="1.0" encoding="utf-8"?>
<!-- Generator: Adobe Illustrator 21.0.0, SVG Export Plug-In . SVG Version: 6.00 Build 0)  -->
<svg version="1.1" id="Layer_1" xmlns="http://www.w3.org/2000/svg" xmlns:xlink="http://www.w3.org/1999/xlink" x="0px" y="0px"
	 viewBox="0 0 600 600" style="enable-background:new 0 0 600 600;" xml:space="preserve">
<style type="text/css">
	.st0{clip-path:url(#SVGID_2_);fill:#2AB0C6;}
	.st1{clip-path:url(#SVGID_2_);}
	.st2{fill:#D5EDF0;}
	.st3{fill:#697578;}
	.st4{fill:#688190;}
	.st5{fill:#575B63;}
	.st6{fill:#7B8386;}
	.st7{fill:none;stroke:#697578;stroke-miterlimit:10;}
	.st8{fill:#9A8579;}
	.st9{fill:#212733;}
	.st10{fill:#6A605F;}
	.st11{fill:none;stroke:#6A605F;stroke-width:5;stroke-miterlimit:10;}
	.st12{fill:none;stroke:#6A605F;stroke-width:3;stroke-miterlimit:10;}
	.st13{fill:none;stroke:#9A8579;stroke-width:7;stroke-miterlimit:10;}
	.st14{fill:none;stroke:#9A8579;stroke-width:2;stroke-miterlimit:10;}
	.st15{fill:#847B71;}
	.st16{fill:#71645E;}
	.st17{fill:none;stroke:#71645E;stroke-width:5;stroke-miterlimit:10;}
	.st18{fill:none;stroke:#71645E;stroke-width:4;stroke-miterlimit:10;}
	.st19{fill:none;stroke:#71645E;stroke-width:3;stroke-miterlimit:10;}
	.st20{fill:none;stroke:#847B71;stroke-width:7;stroke-miterlimit:10;}
	.st21{fill:none;stroke:#847B71;stroke-width:2;stroke-miterlimit:10;}
</style>
<g>
	<defs>
		<circle id="SVGID_1_" cx="300" cy="300" r="300"/>
	</defs>
	<clipPath id="SVGID_2_">
		<use xlink:href="#SVGID_1_"  style="overflow:visible;"/>
	</clipPath>
	<circle class="st0" cx="300" cy="300" r="300"/>
	<g class="st1">
		<rect x="136.5" y="124.6" class="st2" width="56" height="26.4"/>
		<rect x="125.5" y="152.5" class="st2" width="77.3" height="37.1"/>
		<rect x="106.1" y="175.9" class="st2" width="116.3" height="61.3"/>
		<polygon class="st2" points="106.1,175.9 164.2,124.6 222.4,175.9 		"/>
		<rect x="86.9" y="211.3" class="st2" width="153" height="708.4"/>
		<polygon class="st2" points="86.6,211.3 163.1,124.6 239.5,211.3 		"/>
		<polygon class="st2" points="125.5,152.5 164.2,123.9 202.9,152.5 		"/>
		<polygon class="st2" points="137.2,124.6 164.5,99.2 191.7,124.6 		"/>
		<rect x="86.1" y="238.8" class="st3" width="154.6" height="680.9"/>
		<g>
			<polygon class="st3" points="136.5,142.9 164.5,111.1 192.5,142.9 			"/>
			<polygon class="st4" points="137.1,146 164.5,115 191.8,146 			"/>
			<rect x="136.5" y="142.9" class="st3" width="56" height="50.1"/>
			<rect x="139.8" y="142.9" class="st4" width="49" height="22.2"/>
		</g>
		<polygon class="st3" points="124.4,175.3 163.1,131.5 201.7,175.3 		"/>
		<polygon class="st4" points="125.3,179.7 163.1,136.8 200.8,179.7 		"/>
		<rect x="124.4" y="175.3" class="st3" width="77.3" height="69.2"/>
		<rect x="129" y="175.3" class="st4" width="67.7" height="30.7"/>
		<polygon class="st3" points="86.6,238.8 163.1,152.1 239.5,238.8 		"/>
		<rect x="86.1" y="276.5" class="st5" width="154.6" height="5.9"/>
		<rect x="106.2" y="221.1" class="st4" width="27.6" height="698.6"/>
		<rect x="192.9" y="221.1" class="st4" width="27.6" height="698.6"/>
		<polygon class="st4" points="106.3,221.1 163.1,156.6 219.9,221.1 		"/>
		<polygon class="st3" points="134.1,221.1 163.7,184.3 193.3,221.1 		"/>
		<polygon class="st6" points="134.1,229 163.7,192.2 193.3,229 		"/>
		<rect x="106.3" y="340.4" class="st5" width="114.7" height="5.9"/>
		<rect x="106.3" y="318.6" class="st5" width="114.7" height="5.9"/>
		<rect x="134.1" y="229" class="st6" width="58.8" height="690.8"/>
		<polygon class="st3" points="133.9,281.3 163.5,244.5 193.1,281.3 		"/>
		<polygon class="st6" points="134.1,286.5 163.7,249.7 193.3,286.5 		"/>
		<rect x="134" y="221.1" class="st3" width="4.9" height="698.6"/>
		<rect x="188.4" y="221.1" class="st3" width="4.9" height="698.6"/>
		<line class="st7" x1="163.8" y1="190.5" x2="163.6" y2="247.3"/>
		<line class="st7" x1="150.9" y1="206" x2="150.7" y2="262.3"/>
		<line class="st7" x1="156.9" y1="199.1" x2="156.7" y2="254.1"/>
		<line class="st7" x1="182.6" y1="213" x2="182.4" y2="270.7"/>
		<line class="st7" x1="176.4" y1="206" x2="176.3" y2="262.3"/>
		<line class="st7" x1="170.4" y1="199.1" x2="170.2" y2="254.1"/>
		<line class="st7" x1="144.9" y1="210.6" x2="144.7" y2="270.7"/>
		<rect x="106.3" y="303" class="st5" width="114.7" height="5.9"/>
		<rect x="106.3" y="358.1" class="st5" width="114.7" height="5.9"/>
	</g>
	<g class="st1">
		<rect x="219.5" y="281.8" class="st8" width="293.6" height="636.7"/>
		<rect x="258.2" y="281.8" class="st9" width="216.3" height="634.1"/>
		<rect x="481.9" y="849.6" class="st10" width="26.8" height="68.8"/>
		<line class="st11" x1="257.3" y1="333.8" x2="477.9" y2="333.8"/>
		<line class="st12" x1="258.2" y1="281.8" x2="258.2" y2="918.4"/>
		<line class="st12" x1="258.2" y1="408.9" x2="474.5" y2="408.9"/>
		<line class="st12" x1="258.2" y1="428.5" x2="474.5" y2="428.5"/>
		<line class="st12" x1="258.2" y1="448.1" x2="474.5" y2="448.1"/>
		<line class="st12" x1="258.2" y1="467.7" x2="474.5" y2="467.7"/>
		<line class="st12" x1="258.2" y1="487.3" x2="474.5" y2="487.3"/>
		<line class="st12" x1="258.2" y1="506.9" x2="474.5" y2="506.9"/>
		<line class="st12" x1="259.7" y1="526.5" x2="475.9" y2="526.5"/>
		<line class="st12" x1="259.7" y1="546.1" x2="475.9" y2="546.1"/>
		<line class="st12" x1="258.2" y1="565.7" x2="474.5" y2="565.7"/>
		<line class="st12" x1="258.2" y1="585.3" x2="474.5" y2="585.3"/>
		<line class="st12" x1="259.7" y1="604.9" x2="475.9" y2="604.9"/>
		<line class="st12" x1="258.2" y1="624.5" x2="474.5" y2="624.5"/>
		<line class="st12" x1="258.2" y1="644.1" x2="474.5" y2="644.1"/>
		<line class="st12" x1="258.2" y1="663.7" x2="474.5" y2="663.7"/>
		<line class="st12" x1="259.7" y1="683.3" x2="475.9" y2="683.3"/>
		<line class="st12" x1="258.2" y1="702.9" x2="474.5" y2="702.9"/>
		<line class="st12" x1="259.7" y1="722.5" x2="475.9" y2="722.5"/>
		<line class="st12" x1="259.7" y1="742.1" x2="475.9" y2="742.1"/>
		<line class="st12" x1="259.7" y1="761.7" x2="475.9" y2="761.7"/>
		<line class="st12" x1="259.7" y1="781.3" x2="475.9" y2="781.3"/>
		<line class="st12" x1="259.7" y1="800.9" x2="475.9" y2="800.9"/>
		<line class="st12" x1="258.2" y1="820.5" x2="474.5" y2="820.5"/>
		<line class="st12" x1="258.2" y1="840" x2="474.5" y2="840"/>
		<line class="st12" x1="258.2" y1="859.6" x2="474.5" y2="859.6"/>
		<line class="st12" x1="258.2" y1="887.6" x2="474.5" y2="887.6"/>
		<rect x="481.9" y="362.7" class="st9" width="26.8" height="496.9"/>
		<line class="st12" x1="438.4" y1="860.9" x2="438.4" y2="915.9"/>
		<line class="st12" x1="402.4" y1="860.9" x2="402.4" y2="915.9"/>
		<line class="st12" x1="366.3" y1="859.6" x2="366.3" y2="915.9"/>
		<line class="st12" x1="330.3" y1="859.6" x2="330.3" y2="915.9"/>
		<line class="st12" x1="294.3" y1="860.9" x2="294.3" y2="915.9"/>
		<line class="st13" x1="480.2" y1="862.9" x2="512.1" y2="853"/>
		<line class="st14" x1="479.4" y1="841.7" x2="512.8" y2="831.3"/>
		<line class="st14" x1="478.7" y1="822.1" x2="512" y2="811.7"/>
		<line class="st14" x1="478.7" y1="802.5" x2="512" y2="792.1"/>
		<line class="st14" x1="478.7" y1="781.3" x2="512" y2="770.8"/>
		<line class="st14" x1="479.4" y1="763.4" x2="512.8" y2="752.9"/>
		<line class="st14" x1="479.4" y1="742.1" x2="512.8" y2="731.6"/>
		<line class="st14" x1="478.7" y1="722.5" x2="512" y2="712"/>
		<line class="st14" x1="478.7" y1="702.9" x2="512" y2="692.4"/>
		<line class="st14" x1="479.4" y1="683.3" x2="512.8" y2="672.8"/>
		<line class="st14" x1="479.4" y1="663.7" x2="512.8" y2="653.2"/>
		<line class="st14" x1="478.7" y1="645.1" x2="512" y2="634.7"/>
		<line class="st14" x1="479.4" y1="624.9" x2="512.8" y2="614.4"/>
		<line class="st14" x1="479.4" y1="604.9" x2="512.8" y2="594.5"/>
		<line class="st14" x1="478.7" y1="585.9" x2="512" y2="575.4"/>
		<line class="st14" x1="479.4" y1="565.7" x2="512.8" y2="555.3"/>
		<line class="st14" x1="478.7" y1="546.1" x2="512" y2="535.7"/>
		<line class="st14" x1="478.7" y1="526.5" x2="512" y2="516.1"/>
		<line class="st14" x1="479.4" y1="506.9" x2="512.8" y2="496.5"/>
		<line class="st14" x1="478.7" y1="488.9" x2="512" y2="478.4"/>
		<line class="st14" x1="479.4" y1="467.7" x2="512.8" y2="457.3"/>
		<line class="st14" x1="479.4" y1="448.1" x2="512.8" y2="437.7"/>
		<line class="st14" x1="479.4" y1="430.1" x2="512.8" y2="419.7"/>
		<line class="st14" x1="479.4" y1="408.9" x2="512.8" y2="398.5"/>
		<line class="st14" x1="478.7" y1="389.3" x2="512" y2="378.9"/>
		<line class="st13" x1="479.7" y1="364.8" x2="510.5" y2="355.9"/>
		<rect x="223.5" y="849.6" class="st10" width="26.8" height="68.8"/>
		<rect x="224.2" y="361.3" class="st9" width="26.8" height="497"/>
		<line class="st13" x1="252.8" y1="861.5" x2="220.9" y2="851.5"/>
		<line class="st14" x1="253.6" y1="840.3" x2="220.2" y2="829.9"/>
		<line class="st14" x1="254.3" y1="820.7" x2="221" y2="810.3"/>
		<line class="st14" x1="254.3" y1="801.1" x2="221" y2="790.7"/>
		<line class="st14" x1="254.3" y1="779.8" x2="221" y2="769.4"/>
		<line class="st14" x1="253.6" y1="761.9" x2="220.2" y2="751.5"/>
		<line class="st14" x1="253.6" y1="740.7" x2="220.2" y2="730.2"/>
		<line class="st14" x1="254.3" y1="721.1" x2="221" y2="710.6"/>
		<line class="st14" x1="254.3" y1="701.5" x2="221" y2="691"/>
		<line class="st14" x1="253.6" y1="681.9" x2="220.2" y2="671.4"/>
		<line class="st14" x1="253.6" y1="662.3" x2="220.2" y2="651.8"/>
		<line class="st14" x1="254.3" y1="643.7" x2="221" y2="633.3"/>
		<line class="st14" x1="253.6" y1="623.5" x2="220.2" y2="613"/>
		<line class="st14" x1="253.6" y1="603.5" x2="220.2" y2="593"/>
		<line class="st14" x1="254.3" y1="584.5" x2="221" y2="574"/>
		<line class="st14" x1="253.6" y1="564.3" x2="220.2" y2="553.9"/>
		<line class="st14" x1="254.3" y1="544.7" x2="221" y2="534.3"/>
		<line class="st14" x1="254.3" y1="525.1" x2="221" y2="514.7"/>
		<line class="st14" x1="253.6" y1="505.5" x2="220.2" y2="495.1"/>
		<line class="st14" x1="254.3" y1="487.4" x2="221" y2="477"/>
		<line class="st14" x1="253.6" y1="466.3" x2="220.2" y2="455.9"/>
		<line class="st14" x1="253.6" y1="446.7" x2="220.2" y2="436.3"/>
		<line class="st14" x1="253.6" y1="428.7" x2="220.2" y2="418.3"/>
		<line class="st14" x1="253.6" y1="407.5" x2="220.2" y2="397.1"/>
		<line class="st14" x1="254.3" y1="387.9" x2="221" y2="377.5"/>
		<line class="st13" x1="253.3" y1="363.4" x2="222.5" y2="354.5"/>
		<rect x="258.2" y="281.8" class="st10" width="216.9" height="22.5"/>
		<line class="st12" x1="390" y1="304.3" x2="390" y2="335.4"/>
		<line class="st12" x1="432.2" y1="299.1" x2="432.2" y2="335.4"/>
		<rect x="257.3" y="299.1" class="st10" width="92.5" height="36.2"/>
		<line class="st12" x1="259.7" y1="354.5" x2="475.1" y2="354.5"/>
		<line class="st12" x1="257.3" y1="373" x2="477.5" y2="373"/>
		<line class="st12" x1="475.9" y1="281.8" x2="475.9" y2="918.4"/>
		<line class="st12" x1="257.7" y1="391.3" x2="477.9" y2="391.3"/>
		<rect x="258.2" y="913.3" class="st10" width="217.7" height="5.1"/>
	</g>
	<g class="st1">
		<rect x="127.6" y="372.8" class="st15" width="259.4" height="546.5"/>
		<rect x="161.8" y="391" class="st9" width="191.1" height="525.9"/>
		<rect x="359.4" y="855.1" class="st16" width="23.7" height="64.1"/>
		<line class="st17" x1="161.8" y1="409.6" x2="352.8" y2="409.6"/>
		<line class="st18" x1="161.8" y1="391" x2="161.8" y2="919.2"/>
		<line class="st18" x1="352.8" y1="391" x2="352.8" y2="919.2"/>
		<line class="st19" x1="161.8" y1="445" x2="352.8" y2="445"/>
		<line class="st19" x1="161.8" y1="463.2" x2="352.8" y2="463.2"/>
		<line class="st19" x1="161.8" y1="481.5" x2="352.8" y2="481.5"/>
		<line class="st19" x1="161.8" y1="499.7" x2="352.8" y2="499.7"/>
		<line class="st19" x1="161.8" y1="517.9" x2="352.8" y2="517.9"/>
		<line class="st19" x1="161.8" y1="536.2" x2="352.8" y2="536.2"/>
		<line class="st19" x1="163" y1="554.4" x2="354.1" y2="554.4"/>
		<line class="st19" x1="163" y1="572.7" x2="354.1" y2="572.7"/>
		<line class="st19" x1="161.8" y1="590.9" x2="352.8" y2="590.9"/>
		<line class="st19" x1="161.8" y1="609.1" x2="352.8" y2="609.1"/>
		<line class="st19" x1="163" y1="627.4" x2="354.1" y2="627.4"/>
		<line class="st19" x1="161.8" y1="645.6" x2="352.8" y2="645.6"/>
		<line class="st19" x1="161.8" y1="663.9" x2="352.8" y2="663.9"/>
		<line class="st19" x1="161.8" y1="682.1" x2="352.8" y2="682.1"/>
		<line class="st19" x1="163" y1="700.3" x2="354.1" y2="700.3"/>
		<line class="st19" x1="161.8" y1="718.6" x2="352.8" y2="718.6"/>
		<line class="st19" x1="163" y1="736.8" x2="354.1" y2="736.8"/>
		<line class="st19" x1="163" y1="755.1" x2="354.1" y2="755.1"/>
		<line class="st19" x1="163" y1="773.3" x2="354.1" y2="773.3"/>
		<line class="st19" x1="163" y1="791.5" x2="354.1" y2="791.5"/>
		<line class="st19" x1="163" y1="809.8" x2="354.1" y2="809.8"/>
		<line class="st19" x1="161.8" y1="828" x2="352.8" y2="828"/>
		<line class="st19" x1="161.8" y1="846.3" x2="352.8" y2="846.3"/>
		<line class="st19" x1="161.8" y1="864.5" x2="352.8" y2="864.5"/>
		<line class="st19" x1="161.8" y1="890.5" x2="352.8" y2="890.5"/>
		<line class="st19" x1="161.8" y1="426.7" x2="352.8" y2="426.7"/>
		<rect x="158.6" y="372.8" class="st16" width="197.3" height="18.3"/>
		<line class="st19" x1="161.8" y1="916.9" x2="352.8" y2="916.9"/>
		<line class="st19" x1="321" y1="387.9" x2="321" y2="410.2"/>
		<line class="st19" x1="289.1" y1="387.9" x2="289.1" y2="410.2"/>
		<line class="st19" x1="257.3" y1="387.4" x2="257.3" y2="409.6"/>
		<line class="st19" x1="225.5" y1="387.4" x2="225.5" y2="409.6"/>
		<line class="st19" x1="193.6" y1="387.9" x2="193.6" y2="410.2"/>
		<line class="st19" x1="352.8" y1="387.9" x2="352.8" y2="410.2"/>
		<rect x="359.4" y="401.9" class="st9" width="23.7" height="462.6"/>
		<line class="st19" x1="321" y1="865.6" x2="321" y2="916.9"/>
		<line class="st19" x1="289.1" y1="865.6" x2="289.1" y2="916.9"/>
		<line class="st19" x1="257.3" y1="864.5" x2="257.3" y2="916.9"/>
		<line class="st19" x1="225.5" y1="864.5" x2="225.5" y2="916.9"/>
		<line class="st19" x1="193.6" y1="865.6" x2="193.6" y2="916.9"/>
		<line class="st20" x1="357.9" y1="867.6" x2="386.1" y2="858.3"/>
		<line class="st21" x1="357.2" y1="847.8" x2="386.7" y2="838.1"/>
		<line class="st21" x1="356.5" y1="829.6" x2="386" y2="819.9"/>
		<line class="st21" x1="356.5" y1="811.3" x2="386" y2="801.6"/>
		<line class="st21" x1="356.5" y1="791.5" x2="386" y2="781.8"/>
		<line class="st21" x1="357.2" y1="774.9" x2="386.7" y2="765.2"/>
		<line class="st21" x1="357.2" y1="755.1" x2="386.7" y2="745.4"/>
		<line class="st21" x1="356.5" y1="736.8" x2="386" y2="727.1"/>
		<line class="st21" x1="356.5" y1="718.6" x2="386" y2="708.9"/>
		<line class="st21" x1="357.2" y1="700.3" x2="386.7" y2="690.6"/>
		<line class="st21" x1="357.2" y1="682.1" x2="386.7" y2="672.4"/>
		<line class="st21" x1="356.5" y1="664.8" x2="386" y2="655.1"/>
		<line class="st21" x1="357.2" y1="646" x2="386.7" y2="636.3"/>
		<line class="st21" x1="357.2" y1="627.4" x2="386.7" y2="617.7"/>
		<line class="st21" x1="356.5" y1="609.7" x2="386" y2="600"/>
		<line class="st21" x1="357.2" y1="590.9" x2="386.7" y2="581.2"/>
		<line class="st21" x1="356.5" y1="572.7" x2="386" y2="562.9"/>
		<line class="st21" x1="356.5" y1="554.4" x2="386" y2="544.7"/>
		<line class="st21" x1="357.2" y1="536.2" x2="386.7" y2="526.5"/>
		<line class="st21" x1="356.5" y1="519.4" x2="386" y2="509.7"/>
		<line class="st21" x1="357.2" y1="499.7" x2="386.7" y2="490"/>
		<line class="st21" x1="357.2" y1="481.5" x2="386.7" y2="471.8"/>
		<line class="st21" x1="357.2" y1="464.7" x2="386.7" y2="455"/>
		<line class="st21" x1="357.2" y1="445" x2="386.7" y2="435.3"/>
		<line class="st21" x1="356.5" y1="426.7" x2="386" y2="417"/>
		<line class="st20" x1="357.5" y1="403.9" x2="384.6" y2="395.7"/>
		<rect x="131" y="855.1" class="st16" width="23.7" height="64.1"/>
		<rect x="131.7" y="400.6" class="st9" width="23.7" height="462.6"/>
		<line class="st20" x1="157" y1="866.2" x2="128.8" y2="857"/>
		<line class="st21" x1="157.6" y1="846.5" x2="128.2" y2="836.8"/>
		<line class="st21" x1="158.3" y1="828.3" x2="128.8" y2="818.5"/>
		<line class="st21" x1="158.3" y1="810" x2="128.8" y2="800.3"/>
		<line class="st21" x1="158.3" y1="790.2" x2="128.8" y2="780.5"/>
		<line class="st21" x1="157.6" y1="773.6" x2="128.2" y2="763.8"/>
		<line class="st21" x1="157.6" y1="753.7" x2="128.2" y2="744"/>
		<line class="st21" x1="158.3" y1="735.5" x2="128.8" y2="725.8"/>
		<line class="st21" x1="158.3" y1="717.3" x2="128.8" y2="707.6"/>
		<line class="st21" x1="157.6" y1="699" x2="128.2" y2="689.3"/>
		<line class="st21" x1="157.6" y1="680.8" x2="128.2" y2="671.1"/>
		<line class="st21" x1="158.3" y1="663.5" x2="128.8" y2="653.8"/>
		<line class="st21" x1="157.6" y1="644.7" x2="128.2" y2="635"/>
		<line class="st21" x1="157.6" y1="626.1" x2="128.2" y2="616.4"/>
		<line class="st21" x1="158.3" y1="608.4" x2="128.8" y2="598.6"/>
		<line class="st21" x1="157.6" y1="589.6" x2="128.2" y2="579.9"/>
		<line class="st21" x1="158.3" y1="571.3" x2="128.8" y2="561.6"/>
		<line class="st21" x1="158.3" y1="553.1" x2="128.8" y2="543.4"/>
		<line class="st21" x1="157.6" y1="534.9" x2="128.2" y2="525.2"/>
		<line class="st21" x1="158.3" y1="518.1" x2="128.8" y2="508.3"/>
		<line class="st21" x1="157.6" y1="498.4" x2="128.2" y2="488.7"/>
		<line class="st21" x1="157.6" y1="480.1" x2="128.2" y2="470.4"/>
		<line class="st21" x1="157.6" y1="463.4" x2="128.2" y2="453.7"/>
		<line class="st21" x1="157.6" y1="443.7" x2="128.2" y2="434"/>
		<line class="st21" x1="158.3" y1="425.4" x2="128.8" y2="415.7"/>
		<line class="st20" x1="157.4" y1="402.6" x2="130.2" y2="394.4"/>
	</g>
</g>
</svg>
