<?xml version="1.0" standalone="no"?>
<!DOCTYPE svg PUBLIC "-//W3C//DTD SVG 20010904//EN"
 "http://www.w3.org/TR/2001/REC-SVG-20010904/DTD/svg10.dtd">
<svg version="1.0" xmlns="http://www.w3.org/2000/svg"
 width="2500.000000pt" height="2500.000000pt" viewBox="0 0 2500.000000 2500.000000"
 preserveAspectRatio="xMidYMid meet">
<metadata>
Created by potrace 1.11, written by Peter Selinger 2001-2013
</metadata>
<g transform="translate(0.000000,2500.000000) scale(0.100000,-0.100000)"
fill="#000000" stroke="none">
<path d="M12037 24994 c-1 -1 -65 -5 -142 -8 -212 -10 -421 -23 -475 -31 -14
-2 -61 -6 -105 -10 -80 -6 -122 -10 -205 -20 -25 -3 -65 -7 -90 -10 -54 -6
-82 -10 -230 -30 -63 -9 -131 -18 -150 -21 -43 -6 -160 -24 -250 -40 -19 -3
-48 -8 -65 -11 -30 -4 -113 -20 -260 -49 -16 -4 -39 -8 -50 -10 -11 -1 -54
-10 -95 -19 -102 -23 -111 -24 -145 -31 -16 -3 -46 -9 -65 -14 -31 -9 -312
-77 -350 -85 -8 -2 -64 -17 -125 -35 -60 -17 -119 -33 -130 -35 -11 -3 -88
-25 -170 -50 -83 -25 -158 -48 -167 -50 -10 -2 -118 -37 -240 -79 -432 -145
-815 -296 -1248 -492 -143 -65 -567 -278 -720 -361 -80 -44 -176 -97 -215
-118 -38 -21 -77 -44 -86 -51 -8 -8 -19 -14 -22 -14 -4 0 -26 -11 -48 -26 -22
-14 -55 -33 -72 -43 -83 -46 -352 -216 -355 -223 -2 -4 -8 -8 -13 -8 -26 0
-619 -415 -864 -605 -168 -131 -393 -311 -405 -325 -3 -3 -21 -18 -40 -34
-325 -266 -872 -793 -1180 -1136 -17 -19 -46 -51 -63 -70 -79 -85 -183 -207
-307 -355 -163 -196 -154 -186 -215 -265 -28 -36 -53 -67 -56 -70 -7 -6 -119
-155 -134 -178 -5 -8 -16 -22 -24 -31 -42 -49 -244 -338 -386 -551 -214 -323
-426 -678 -608 -1015 -58 -109 -270 -535 -311 -625 -16 -36 -44 -96 -62 -135
-72 -159 -92 -205 -201 -475 -107 -262 -249 -665 -347 -980 -32 -102 -134
-460 -140 -492 -3 -13 -16 -68 -31 -123 -14 -55 -27 -107 -29 -115 -9 -36 -96
-428 -100 -455 -3 -16 -14 -75 -25 -130 -20 -100 -46 -244 -54 -300 -3 -16
-10 -59 -16 -95 -5 -36 -13 -85 -16 -110 -8 -57 -14 -98 -20 -130 -2 -14 -7
-50 -10 -80 -3 -30 -7 -66 -10 -80 -2 -14 -7 -52 -10 -85 -3 -33 -7 -67 -9
-75 -3 -8 -7 -51 -11 -95 -3 -44 -8 -98 -10 -120 -8 -69 -14 -147 -20 -230 -3
-44 -7 -105 -10 -135 -27 -333 -27 -1349 0 -1640 2 -19 6 -81 10 -137 3 -57 8
-111 9 -120 2 -10 7 -60 10 -111 4 -51 9 -100 10 -110 2 -9 7 -48 10 -87 4
-38 9 -81 11 -95 2 -14 7 -50 10 -80 3 -30 8 -66 10 -80 2 -14 7 -47 10 -75 3
-27 7 -57 10 -65 2 -8 6 -37 9 -65 3 -27 8 -63 11 -80 13 -75 16 -97 20 -128
3 -17 7 -43 10 -57 3 -14 8 -41 11 -60 3 -19 11 -66 19 -105 8 -38 16 -83 19
-100 4 -24 38 -194 51 -255 18 -87 58 -261 65 -285 5 -16 12 -41 14 -55 8 -40
43 -180 59 -240 9 -30 25 -91 37 -135 30 -112 139 -476 150 -500 5 -11 27 -78
51 -150 78 -240 204 -574 342 -900 53 -127 67 -160 128 -292 16 -35 43 -93 60
-130 117 -255 417 -823 525 -995 13 -21 24 -40 24 -42 0 -5 164 -272 228 -371
235 -365 522 -768 742 -1041 82 -102 292 -357 300 -364 3 -3 36 -41 74 -85
391 -454 993 -1043 1446 -1412 8 -6 47 -38 85 -70 129 -107 388 -305 575 -440
315 -228 343 -246 351 -230 4 6 7 55 7 107 0 52 3 358 7 680 3 322 8 758 10
970 3 212 7 612 10 890 3 278 7 703 10 945 3 242 7 634 10 870 2 237 7 678 11
980 11 1031 11 1080 2 1086 -5 3 -4 12 4 20 7 8 63 70 123 139 61 69 115 130
120 136 6 6 37 41 70 79 93 107 234 266 269 305 37 41 172 194 203 230 12 14
30 34 40 46 10 12 45 52 79 90 34 38 83 94 109 124 27 30 51 57 54 60 5 4 137
154 241 274 14 16 36 41 50 56 14 15 36 40 50 56 14 16 93 106 176 201 l151
171 -1 598 -1 597 115 101 c63 56 117 103 120 106 3 3 63 57 135 120 187 166
197 174 209 185 6 6 67 60 136 120 69 60 143 126 164 145 52 47 50 45 141 125
44 38 85 74 91 80 6 5 42 37 79 70 38 33 79 69 91 80 24 23 116 103 154 135
14 12 41 36 60 53 19 18 71 64 114 102 44 39 95 84 114 101 l35 32 -1 281 0
282 131 97 c72 53 204 151 293 217 89 66 251 186 361 267 l198 147 0 891 0
892 118 146 c65 81 124 154 130 162 57 71 93 116 97 120 3 3 57 70 120 150 63
80 117 147 120 150 3 3 86 106 185 230 99 124 182 227 185 230 3 3 48 59 100
125 52 66 103 129 112 140 21 26 234 291 273 341 17 21 44 54 60 74 17 20 44
53 60 75 17 21 56 70 88 109 31 39 70 87 85 106 21 26 34 63 51 140 13 58 31
141 41 185 31 135 59 259 64 285 2 14 21 97 41 185 20 88 39 171 41 185 3 14
7 33 10 42 3 10 7 30 10 44 3 14 11 54 19 88 8 33 17 76 20 95 3 19 8 37 10
41 2 4 7 21 10 38 3 18 12 62 21 99 9 38 18 77 20 88 7 39 32 152 74 335 23
102 49 214 57 250 11 49 14 141 14 385 0 176 0 329 0 340 -1 13 -17 28 -48 45
-27 13 -85 61 -129 106 -137 136 -205 306 -198 499 4 113 23 188 76 295 50 98
160 218 245 266 29 16 53 35 54 42 1 16 1 175 0 295 l-1 92 -47 25 c-27 14
-84 61 -129 105 -126 124 -193 277 -199 455 -5 151 43 316 125 425 39 52 150
154 197 181 l53 29 1 118 c1 149 1 373 0 482 l-1 85 -136 -3 c-75 -1 -136 -3
-137 -3z"/>
<path d="M12880 24656 l1 -341 57 -33 c134 -77 244 -222 297 -392 22 -72 28
-248 11 -320 -25 -101 -48 -160 -90 -225 -66 -102 -137 -170 -248 -239 l-28
-16 0 -198 0 -197 45 -24 c67 -35 168 -132 218 -209 84 -129 118 -248 113
-397 -5 -130 -25 -208 -81 -310 -34 -61 -124 -172 -154 -189 -9 -5 -18 -13
-21 -17 -9 -13 -77 -57 -100 -64 l-21 -7 3 -361 4 -362 38 -160 c21 -88 39
-167 41 -175 4 -16 24 -103 55 -245 11 -49 29 -130 40 -180 11 -49 27 -121 36
-160 8 -38 17 -77 19 -85 2 -8 10 -46 19 -85 14 -65 39 -176 85 -385 11 -47
27 -119 36 -160 23 -104 21 -98 39 -171 8 -37 17 -78 20 -90 2 -13 11 -56 20
-95 8 -40 17 -78 18 -85 2 -8 57 -81 123 -163 126 -156 203 -253 258 -322 17
-23 88 -111 156 -195 68 -85 251 -311 405 -504 323 -402 308 -384 321 -399 6
-6 33 -40 60 -76 28 -36 53 -67 56 -70 3 -3 80 -97 170 -210 90 -113 170 -211
177 -218 38 -41 38 -37 38 -966 l-1 -900 155 -114 c85 -63 182 -135 215 -159
33 -24 101 -74 150 -111 50 -37 164 -122 255 -189 l165 -121 0 -282 c0 -155 2
-285 5 -289 3 -3 118 -105 255 -226 138 -121 252 -222 255 -225 3 -3 59 -52
125 -110 66 -58 137 -121 159 -140 43 -39 44 -39 107 -95 25 -22 79 -70 120
-106 40 -36 157 -139 259 -229 276 -243 331 -292 365 -324 16 -15 47 -42 68
-59 l37 -31 0 -716 0 -715 56 -65 c31 -36 85 -96 119 -135 35 -38 136 -153
225 -255 90 -102 191 -216 225 -255 34 -38 78 -88 96 -110 19 -22 37 -42 40
-45 5 -5 221 -248 269 -304 14 -16 32 -37 40 -46 8 -9 44 -49 80 -90 36 -41
81 -92 100 -114 50 -56 63 -70 185 -210 61 -69 117 -126 125 -126 14 0 16 -39
19 -317 4 -400 8 -776 16 -1498 3 -313 8 -741 10 -950 4 -375 12 -1131 20
-1845 10 -900 17 -1541 18 -1732 2 -237 -11 -221 112 -136 39 26 78 54 88 61
18 11 223 159 281 202 196 143 729 572 771 619 6 6 44 40 85 76 41 36 82 72
91 80 8 8 69 65 135 125 198 184 547 536 723 731 25 27 65 72 90 99 258 282
626 745 872 1094 233 331 460 683 602 932 13 24 50 89 82 144 31 55 75 134 97
175 23 41 54 99 71 129 36 66 228 450 266 535 106 230 138 302 210 473 45 105
81 195 81 198 0 4 7 21 15 38 40 87 231 613 270 747 8 25 30 97 50 160 20 63
38 120 39 125 2 6 5 17 8 25 44 119 230 877 263 1070 3 19 10 51 15 70 5 19
12 55 15 80 3 25 10 61 15 80 5 19 11 53 14 75 3 22 9 63 15 90 8 43 52 342
66 445 17 133 22 172 30 245 2 28 7 68 9 90 3 22 8 76 12 120 3 44 8 91 9 105
2 14 6 70 10 125 4 55 8 116 10 135 27 243 27 1295 0 1640 -2 30 -7 89 -10
130 -16 220 -32 383 -50 515 -2 17 -6 57 -10 90 -5 55 -15 132 -30 225 -11 78
-35 237 -40 270 -3 19 -10 58 -15 85 -5 28 -12 64 -15 80 -3 17 -7 44 -10 60
-5 31 -15 81 -34 175 -7 30 -13 64 -15 75 -1 11 -6 31 -9 45 -3 14 -16 70 -27
125 -27 124 -130 539 -165 660 -14 50 -28 97 -30 106 -4 17 -38 131 -99 329
-77 253 -264 766 -353 970 -8 19 -19 44 -23 55 -172 410 -434 949 -642 1315
-193 340 -410 686 -621 990 -87 124 -287 402 -296 410 -3 3 -35 43 -71 90 -64
85 -219 281 -230 290 -3 3 -23 27 -45 55 -54 67 -278 328 -335 389 -25 27 -74
81 -110 120 -235 256 -571 588 -804 797 -28 24 -57 51 -66 59 -9 8 -47 42 -84
75 -38 33 -74 65 -80 70 -9 8 -110 93 -231 194 -17 14 -55 44 -185 148 -275
221 -692 517 -1025 729 -137 88 -375 234 -380 234 -3 0 -22 11 -43 24 -193
121 -929 501 -1182 609 -19 8 -60 26 -90 40 -274 124 -1018 406 -1178 447 -20
5 -95 28 -167 50 -245 78 -730 207 -960 255 -11 2 -63 13 -115 25 -52 11 -105
22 -118 25 -12 2 -71 13 -130 24 -59 11 -120 23 -137 26 -16 2 -55 9 -85 15
-72 12 -106 18 -155 25 -22 3 -65 10 -95 15 -30 5 -75 12 -100 15 -25 3 -56 8
-70 10 -14 2 -50 7 -80 10 -30 3 -66 7 -80 10 -26 4 -75 10 -175 20 -33 4 -71
8 -85 10 -14 2 -61 7 -105 10 -44 4 -96 8 -115 10 -33 3 -138 11 -275 20 -33
3 -118 7 -190 10 -71 4 -151 8 -177 9 l-48 3 0 -341z"/>
</g>
</svg>
